<?xml version="1.0" encoding="UTF-8"?>
<svg version="1.1" xmlns="http://www.w3.org/2000/svg" width="2036" height="1674">
<path d="M0 0 C1.6696582 0.00089127 1.6696582 0.00089127 3.37304688 0.00180054 C26.40145541 0.04888163 49.38705406 0.68076421 72.3125 2.9375 C73.19176147 3.02269897 74.07102295 3.10789795 74.97692871 3.19567871 C165.29973236 12.04627412 251.29900515 38.71777663 391.625 113.75 C392.62080078 114.38397705 393.61660156 115.0179541 394.64257812 115.67114258 C401.31509078 119.96778507 407.7355886 124.54559722 414.125 129.25 C415.34890097 130.12612583 416.57507205 130.99910001 417.8046875 131.8671875 C430.71675168 140.99087099 443.06177592 150.73875422 455.29150391 160.75292969 C456.92194039 162.08419953 458.56004819 163.40606169 460.19921875 164.7265625 C465.74760294 169.20642762 471.08582142 173.85610875 476.32421875 178.6953125 C478.52863849 180.70603845 480.75350215 182.67841612 483.00390625 184.63671875 C493.62161533 193.90181373 503.71073872 203.74114444 513.6875 213.6875 C514.51991211 214.51531982 515.35232422 215.34313965 516.20996094 216.19604492 C520.46879814 220.46562808 524.56899962 224.80831602 528.50073242 229.38061523 C531.08350467 232.353152 533.79857054 235.19824919 536.5 238.0625 C541.09630909 242.97940574 545.49945922 247.98463848 549.70703125 253.2421875 C551.53711999 255.51871146 553.38639217 257.76906789 555.26171875 260.0078125 C564.28359909 270.79833614 572.82335814 281.89696901 581.125 293.25 C581.63740234 293.9502832 582.14980469 294.65056641 582.67773438 295.37207031 C597.34469953 315.53180413 610.75790304 336.61185072 623.125 358.25 C623.55296875 358.99556152 623.9809375 359.74112305 624.421875 360.50927734 C627.39901195 365.715734 630.28492608 370.96764425 633.125 376.25 C633.64143066 377.2090625 634.15786133 378.168125 634.68994141 379.15625 C671.17950319 447.30133182 695.77879481 521.58910175 712.375 628.6875 C712.52614258 629.92709473 712.67728516 631.16668945 712.83300781 632.44384766 C713.31828222 636.70889488 713.74134786 640.97474163 714.125 645.25 C714.2563031 646.71013519 714.2563031 646.71013519 714.39025879 648.19976807 C716.08451264 667.77942044 716.44142697 687.24852813 716.38574219 706.88818359 C716.37434859 710.93809861 716.381142 714.98775069 716.39261341 719.03765678 C716.45642886 745.54712021 715.24715876 771.79886965 711.9375 798.125 C711.83240112 798.97309235 711.72730225 799.82118469 711.61901855 800.69497681 C701.62900526 880.63258688 677.96735904 957.14002819 619.77294922 1071.50976562 C618.16728578 1074.17968658 616.58268983 1076.86099009 615.00390625 1079.546875 C596.71715528 1110.54611963 575.50269977 1140.22170095 552.09814453 1167.57592773 C549.31039904 1170.83423517 546.60620598 1174.1425957 543.9375 1177.5 C538.03647284 1184.7546678 531.50280866 1191.42843085 525.06152344 1198.20019531 C522.31946781 1201.10265359 519.62933869 1204.05108324 516.9375 1207 C509.00312039 1215.64538421 500.83288044 1224.10899695 491.8828125 1231.7109375 C490.04572976 1233.3194055 488.33592213 1235.00838868 486.625 1236.75 C482.96212494 1240.46204116 479.08350906 1243.85791175 475.125 1247.25 C474.10518849 1248.1337913 473.08568012 1249.01793245 472.06640625 1249.90234375 C456.90996818 1263.01929596 441.25343975 1275.35002617 425.125 1287.25 C424.37492676 1287.806875 423.62485352 1288.36375 422.85205078 1288.9375 C404.65902044 1302.42522666 385.60776994 1314.71166052 366.125 1326.25 C365.3510791 1326.70906738 364.5771582 1327.16813477 363.77978516 1327.64111328 C342.75840843 1340.03986023 321.0241705 1351.07902648 298.9375 1361.4375 C298.26431732 1361.75369293 297.59113464 1362.06988586 296.89755249 1362.3956604 C289.39542443 1365.91065314 281.86921501 1369.29728407 274.125 1372.25 C273.795 1374.56 273.465 1376.87 273.125 1379.25 C270.86077931 1375.85366896 270.03598998 1372.57049536 269 1368.6875 C265.44804287 1356.06512361 259.44723136 1335.5907477 248.6640625 1327.375 C245.5145922 1324.73913562 243.96717636 1321.74053395 242.1875 1318.125 C241.49268056 1316.77251376 240.79606058 1315.42095104 240.09765625 1314.0703125 C239.59322998 1313.08659668 239.59322998 1313.08659668 239.07861328 1312.08300781 C231.71330281 1297.92562149 223.41017608 1285.7961008 208.9375 1278.5625 C199.63665941 1273.89062247 192.86461394 1267.11771162 185.66796875 1259.7265625 C175.55314632 1249.3460267 163.02471078 1240.39142791 148.125 1239.25 C139.02267813 1239.17438362 131.40185605 1240.22962496 122.8046875 1243.36328125 C118.78387067 1244.69378478 115.24886738 1245.52871857 111.125 1244.25 C105.53407995 1240.04486355 102.11048495 1233.21912696 98.34375 1227.453125 C91.43470451 1217.47879877 82.86819146 1208.68803001 74.60253906 1199.84082031 C73.14883852 1198.2756662 71.70870158 1196.69925122 70.2734375 1195.1171875 C65.19686124 1189.52282888 60.02772613 1184.06575438 54.609375 1178.796875 C52.65591547 1176.79427183 50.85260697 1174.77535172 49.04296875 1172.6484375 C46.08199831 1169.23027599 42.94514695 1166.07015271 39.69140625 1162.9296875 C39.20580231 1162.45905884 38.72019836 1161.98843018 38.21987915 1161.50354004 C36.21181065 1159.55780744 34.20411274 1157.61259329 32.1706543 1155.69335938 C25.29959357 1149.19037133 20.28579384 1142.86481501 15.90795898 1134.45043945 C8.07936269 1120.39798582 -6.5779286 1111.89520239 -20.41796875 1104.6328125 C-27.08460647 1100.88084151 -32.20145324 1096.07613935 -37.09765625 1090.26953125 C-50.36769742 1075.19126469 -69.39571932 1064.37087255 -85.875 1053.25 C-96.77980943 1045.87911342 -107.41075199 1038.23456839 -117.875 1030.25 C-118.58333984 1029.71052734 -119.29167969 1029.17105469 -120.02148438 1028.61523438 C-128.20074163 1022.38376802 -136.35282679 1016.11707337 -144.5 1009.84375 C-148.45177422 1006.80392367 -152.41360018 1003.77726485 -156.375 1000.75 C-163.5528328 995.26440437 -170.71745061 989.76203238 -177.875 984.25 C-180.04144651 982.58304708 -182.20822497 980.91652587 -184.375 979.25 C-185.45833938 978.41667453 -186.54167272 977.5833412 -187.625 976.75 C-188.429375 976.13125 -188.429375 976.13125 -189.25 975.5 C-194.125 971.75 -194.125 971.75 -195.74975586 970.5 C-196.83366106 969.66635201 -197.91780847 968.83301885 -199.00219727 968 C-201.70385055 965.92398847 -204.40113779 963.84275989 -207.08984375 961.75 C-212.66626512 957.41907805 -218.29600157 953.20029427 -224.0625 949.125 C-234.48091001 941.74801566 -244.17415404 933.53417935 -253.875 925.25 C-254.43735352 924.77014648 -254.99970703 924.29029297 -255.57910156 923.79589844 C-262.83084991 917.60437144 -270.04752628 911.37311188 -277.24926758 905.12353516 C-281.63465986 901.3198494 -286.03090547 897.52910301 -290.4375 893.75 C-290.99695313 893.26982422 -291.55640625 892.78964844 -292.1328125 892.29492188 C-292.93525391 891.6075293 -292.93525391 891.6075293 -293.75390625 890.90625 C-294.27259277 890.46128174 -294.7912793 890.01631348 -295.32568359 889.55786133 C-296.35938844 888.68525546 -297.40416869 887.82560508 -298.45947266 886.97924805 C-301.81965608 884.27598629 -304.48933123 881.46774381 -307.125 878.0625 C-311.0519544 873.13547232 -315.27527883 868.71389396 -319.80859375 864.34375 C-321.875 862.25 -321.875 862.25 -323.875 859.25 C-323.69512997 855.12426468 -321.00176552 853.03317093 -318.18359375 850.265625 C-317.71889175 849.80516785 -317.25418976 849.34471069 -316.77540588 848.87030029 C-315.29468181 847.40632189 -313.80385481 845.95313959 -312.3125 844.5 C-311.30465336 843.50720551 -310.29748367 842.5137233 -309.29101562 841.51953125 C-306.82680539 839.08833527 -304.35342671 836.66671132 -301.875 834.25 C-298.83189842 835.69788965 -297.02307232 836.9501308 -294.875 839.5625 C-283.50764288 853.11578069 -283.50764288 853.11578069 -269.875 864.25 C-268.91207031 864.89582031 -268.91207031 864.89582031 -267.9296875 865.5546875 C-262.49335939 868.7460542 -257.0415916 869.6736854 -250.875 868.25 C-246.11388032 865.79406624 -242.05004467 862.56727868 -237.875 859.25 C-236.50135028 858.18575487 -235.12628578 857.12333396 -233.75 856.0625 C-230.71778452 853.71836288 -227.69807848 851.35906961 -224.68359375 848.9921875 C-219.80062841 845.17265018 -214.84509252 841.45507429 -209.875 837.75 C-202.54666836 832.28268544 -195.29911302 826.72296839 -188.0949707 821.09326172 C-183.19056181 817.26354577 -178.24287052 813.50042225 -173.25390625 809.78125 C-168.64821986 806.34033607 -164.07498073 802.85656881 -159.5 799.375 C-158.58839111 798.68172607 -157.67678223 797.98845215 -156.73754883 797.27416992 C-152.11331338 793.74906659 -147.51899368 790.19386871 -142.97583008 786.56494141 C-135.89920641 780.91685671 -128.72615629 775.65253227 -120.5859375 771.62109375 C-112.48422263 767.60748558 -108.03436324 763.59178394 -102.875 756.25 C-101.17239983 753.99986148 -99.43172626 751.7804591 -97.6875 749.5625 C-97.22859375 748.97484863 -96.7696875 748.38719727 -96.296875 747.78173828 C-92.21702969 742.59390759 -87.92050279 737.61261403 -83.57373047 732.64794922 C-79.67753827 728.19499243 -75.90749176 723.65709533 -72.18359375 719.05859375 C-69.46155909 715.7470152 -66.67360269 712.49686941 -63.875 709.25 C-60.32042508 705.125357 -56.80707702 700.97792096 -53.375 696.75 C-49.94291209 692.52206562 -46.42927146 688.37491649 -42.875 684.25 C-38.46431194 679.12579779 -34.09183881 673.97741513 -29.85546875 668.70703125 C-28.59308379 667.14087713 -27.30614195 665.59398772 -25.98828125 664.07421875 C-23.29505601 660.84109287 -21.51486717 658.48224483 -21.375 654.1875 C-21.86142384 650.35691228 -22.79873344 646.9496663 -23.875 643.25 C-23.94903678 640.91784156 -23.97015886 638.58139212 -23.875 636.25 C-19.24079949 634.37849595 -14.7478114 632.93794629 -9.875 631.8125 C-5.40584123 630.74439916 -1.68321723 629.32143452 2.3515625 627.1640625 C6.07402446 625.24543673 9.63104693 624.15867191 13.83720398 624.415802 C20.32141665 624.63977156 24.49747656 623.55259844 29.31933308 619.32256889 C32.46204965 616.32234357 35.46595667 613.2050831 38.45703125 610.0546875 C39.78418367 608.70255866 41.11412735 607.35316445 42.44670105 606.00637817 C45.93450228 602.46733718 49.38521347 598.89426123 52.82861328 595.31207275 C56.32303386 591.68809809 59.8484721 588.09461515 63.37304688 584.5 C67.34373641 580.44993874 71.31171533 576.397845 75.25166321 572.31784058 C81.0130774 566.36065206 86.78607063 560.60081891 93.125 555.25 C94.43773532 554.0048266 95.73834331 552.74633464 97.01171875 551.4609375 C97.64013672 550.82929687 98.26855469 550.19765625 98.91601562 549.546875 C99.54185547 548.91265625 100.16769531 548.2784375 100.8125 547.625 C101.76866211 546.66207031 101.76866211 546.66207031 102.74414062 545.6796875 C103.98592013 544.42893745 105.22050391 543.17099326 106.44702148 541.90527344 C108.125 540.25 108.125 540.25 110.890625 538.1015625 C114.5379429 533.44676867 115.08689345 527.96939128 116.1875 522.25 C116.64468857 519.91411216 117.11431798 517.58061741 117.59765625 515.25 C117.79625244 514.21875 117.99484863 513.1875 118.19946289 512.125 C119.28852019 508.74205652 120.63022117 506.77151062 123.125 504.25 C125.14868164 503.47045898 125.14868164 503.47045898 127.28515625 503.24609375 C128.4772168 503.09430664 128.4772168 503.09430664 129.69335938 502.93945312 C130.51642578 502.85630859 131.33949219 502.77316406 132.1875 502.6875 C137.62566139 502.09304511 142.36146615 501.2559361 147.44921875 499.1796875 C153.64248322 496.79875163 159.30550288 496.7591964 165.875 496.9375 C166.95910156 496.94716797 168.04320312 496.95683594 169.16015625 496.96679688 C174.64421266 497.04380133 179.65054399 497.46793486 185.125 498.25 C185.125 505.18 185.125 512.11 185.125 519.25 C231.325 519.25 277.525 519.25 325.125 519.25 C327.79224152 513.91551695 329.62693755 510.12235417 331.125 504.625 C332.8739428 498.68272583 334.72058198 494.65441802 339.125 490.25 C355.58831912 488.3384982 372.85140847 491.91789764 389.182271 494.02078962 C393.34933373 494.55498485 397.51798611 495.0764894 401.6864624 495.59951782 C408.67699926 496.47836331 415.66648932 497.36513985 422.65527344 498.2578125 C432.4704959 499.51150011 442.28744231 500.75123636 452.10481691 501.98794246 C465.3034784 503.65128082 478.5016044 505.3189962 491.69775391 507.00215721 C493.11089325 507.18228305 494.52407622 507.36206702 495.93730927 507.54145622 C504.02509753 508.56854149 512.09966241 509.6574296 520.16552353 510.8451786 C525.96141447 511.63798797 531.05830618 512.24236256 536.265625 508.91015625 C546.32639083 499.92732962 551.48513558 487.93514598 555.5 475.4375 C556.29029647 473.01950899 557.08066124 470.6015403 557.87109375 468.18359375 C558.25378418 467.00394043 558.63647461 465.82428711 559.03076172 464.60888672 C560.74117524 459.35858123 562.50695994 454.12708277 564.27294922 448.89526367 C564.90165668 447.01727313 565.51378156 445.13375518 566.125 443.25 C566.46789063 442.20457031 566.81078125 441.15914062 567.1640625 440.08203125 C568.84048532 433.39678414 569.59901431 426.55778485 570.53710938 419.73632812 C571.35493897 413.96590494 572.32173339 408.37043889 573.734375 402.71484375 C575.63916786 394.0858374 575.53984249 385.50507769 575.46118164 376.70117188 C575.43759574 373.88642547 575.4406431 371.07263295 575.44726562 368.2578125 C575.53416724 344.6163028 575.53416724 344.6163028 567.63085938 322.7109375 C564.0292168 319.17386061 560.72879781 319.06981575 555.8359375 318.54296875 C554.9107431 318.42801559 553.98554871 318.31306244 553.03231812 318.19462585 C543.29143278 317.03896306 533.51316954 316.32825393 523.72363281 315.74194336 C520.75759591 315.56295837 517.7929862 315.36733466 514.828125 315.16992188 C504.80582415 314.52851693 494.80947986 314.1292824 484.765625 314.10546875 C483.8427066 314.10202957 482.91978821 314.09859039 481.96890259 314.095047 C476.00643004 314.11987337 470.16976089 314.55445738 464.25 315.25 C444.2832823 317.41244168 423.79342149 317.33682105 403.96875 314.109375 C399.27576788 313.36536564 394.57482486 312.87526743 389.84375 312.453125 C388.75810509 312.35624138 388.75810509 312.35624138 387.65052795 312.25740051 C384.73994508 312.00128762 381.82907469 311.75018456 378.91696167 311.51205444 C376.89074427 311.34620138 374.86527333 311.17130564 372.83984375 310.99609375 C371.66542725 310.89997803 370.49101074 310.8038623 369.28100586 310.70483398 C366.26188203 310.26972702 363.88680193 309.51567733 361.125 308.25 C361.07601563 307.00863281 361.02703125 305.76726562 360.9765625 304.48828125 C360.90150201 302.84633306 360.82595561 301.20440703 360.75 299.5625 C360.7190625 298.74587891 360.688125 297.92925781 360.65625 297.08789062 C360.61757812 296.29189453 360.57890625 295.49589844 360.5390625 294.67578125 C360.5076416 293.94786377 360.4762207 293.21994629 360.44384766 292.4699707 C360.06720157 289.84757953 359.18479243 287.66892974 358.125 285.25 C351.51473331 284.83731741 344.90416563 284.42971206 338.29336548 284.02566528 C335.97884425 283.88392594 333.66437026 283.74141292 331.34994507 283.59811401 C315.2040255 282.57794836 315.2040255 282.57794836 299.0390625 281.96875 C297.80325439 281.93837646 296.56744629 281.90800293 295.29418945 281.87670898 C293.13152958 281.83534019 290.96846911 281.81015843 288.80541992 281.80493164 C281.13312225 281.66749183 277.0023991 279.87719048 271.25 274.625 C264.46416261 269.46776359 255.37775919 269.69637565 247.125 269.25 C245.63419922 269.15138672 245.63419922 269.15138672 244.11328125 269.05078125 C236.66589898 268.76846218 229.83369716 269.84840707 223.125 273.25 C221.29609747 275.26851768 221.29609747 275.26851768 220.125 277.25 C216.35917487 277.03927693 215.18900943 276.31429266 212.4765625 273.58984375 C211.55564502 272.46550271 210.64729522 271.33078171 209.75 270.1875 C208.77641145 268.99318804 207.80245405 267.79917667 206.828125 266.60546875 C206.36212891 266.02587402 205.89613281 265.4462793 205.41601562 264.84912109 C202.75684262 261.555327 199.97530351 258.3788559 197.125 255.25 C196.4753125 254.53457031 195.825625 253.81914062 195.15625 253.08203125 C184.15064821 241.49823661 171.63829337 235.23589749 157.125 229.25 C155.78407034 228.6947627 154.44325843 228.13924098 153.10253906 227.58349609 C152.37824203 227.28327545 151.65394501 226.98305481 150.90769958 226.67373657 C147.80018264 225.38522394 144.69298587 224.09594006 141.58584595 222.80651855 C139.98848434 222.144476 138.39064507 221.48358476 136.79232788 220.82385254 C126.96663855 216.76791476 117.20006191 212.67202473 107.75415039 207.77563477 C103.0659519 205.4125301 99.33296067 204.33095276 94.125 204.25 C91.73993909 205.51808093 91.73993909 205.51808093 90.0625 207.6875 C89.39992188 208.43128906 88.73734375 209.17507813 88.0546875 209.94140625 C87.41789063 210.70324219 86.78109375 211.46507812 86.125 212.25 C84.97946808 213.54193398 83.83364318 214.83360826 82.6875 216.125 C82.12160156 216.78242188 81.55570313 217.43984375 80.97265625 218.1171875 C78.8878345 220.52376821 76.75978467 222.88764945 74.625 225.25 C69.82592208 230.57334693 65.0842205 235.93863339 60.4453125 241.40234375 C54.89999076 247.92447125 49.26099057 254.3148826 43.41308594 260.56738281 C40.36878242 263.84294973 37.48533232 267.19531514 34.6875 270.6875 C30.10585598 276.39577779 25.13697564 281.69296038 20.1328125 287.02734375 C17.2827443 290.06794331 14.52011189 293.17348424 11.796875 296.328125 C9.76741927 298.66105074 7.697353 300.95511245 5.625 303.25 C0.82592208 308.57334693 -3.9157795 313.93863339 -8.5546875 319.40234375 C-14.10067765 325.9252574 -19.74020568 332.31659203 -25.58911133 338.56958008 C-28.6133702 341.82331665 -31.47500498 345.15240919 -34.25 348.625 C-39.0814614 354.64669368 -44.36711671 360.20437915 -49.65625 365.8203125 C-53.60816017 370.01808922 -57.39845773 374.33290505 -61.12939453 378.72753906 C-62.6054594 380.46559391 -64.08336838 382.20205423 -65.5625 383.9375 C-66.07482178 384.53868652 -66.58714355 385.13987305 -67.11499023 385.75927734 C-71.15800133 390.47580978 -75.34804896 395.03578565 -79.59130859 399.57177734 C-82.59554404 402.80371047 -85.43536814 406.10945067 -88.1875 409.5625 C-92.64185623 415.11619461 -97.47948744 420.26355463 -102.3840332 425.41723633 C-106.13964136 429.36791516 -109.77957645 433.38717023 -113.32226562 437.53051758 C-114.875 439.25 -114.875 439.25 -117.75 441.75 C-120.57050386 445.06823984 -121.03315041 448.02512464 -120.875 452.25 C-120.25167728 456.3853776 -119.19599567 460.28701299 -117.875 464.25 C-118.35855957 464.72308594 -118.84211914 465.19617188 -119.34033203 465.68359375 C-121.56567783 467.86691174 -123.78284225 470.05836873 -126 472.25 C-126.76054688 472.99378906 -127.52109375 473.73757813 -128.3046875 474.50390625 C-136.41106256 482.54039877 -141.21493183 489.04259178 -144.50390625 500.078125 C-146.08071835 503.72590684 -147.63473802 505.02881278 -150.875 507.25 C-151.46023438 507.75144531 -152.04546875 508.25289062 -152.6484375 508.76953125 C-155.80799293 511.32029429 -157.25005372 512.25 -161.4375 512.25 C-164.875 511.25 -164.875 511.25 -167.4375 509.72265625 C-172.1226888 507.71547878 -176.2666399 507.69810797 -181.3125 507.6875 C-182.22837891 507.65076172 -183.14425781 507.61402344 -184.08789062 507.57617188 C-188.99693035 507.54445518 -192.00497295 507.85030467 -195.7578125 511.1640625 C-196.5780188 511.98233521 -196.5780188 511.98233521 -197.41479492 512.81713867 C-199.21227124 514.58095551 -200.96406957 515.32138162 -203.3125 516.1875 C-211.0845575 519.81763405 -216.83821925 526.45241449 -222.8984375 532.3671875 C-225.5311156 534.87499549 -228.26387279 537.25484905 -231.01318359 539.63330078 C-233.59539985 541.8755557 -236.10928281 544.18326609 -238.625 546.5 C-239.66531927 547.45708051 -240.70568515 548.41411035 -241.74609375 549.37109375 C-242.26671387 549.85046387 -242.78733398 550.32983398 -243.32373047 550.82373047 C-245.77307994 553.07571341 -248.23136141 555.31792651 -250.6875 557.5625 C-252.75210701 559.45604832 -254.81390456 561.35263067 -256.875 563.25 C-257.45121094 563.77964355 -258.02742188 564.30928711 -258.62109375 564.85498047 C-266.50485243 572.11354861 -274.19934996 579.51816156 -281.73925781 587.13354492 C-285.2787432 590.69595929 -288.88084744 594.07987148 -292.72265625 597.31640625 C-295.89855784 600.16953019 -298.87218215 603.21659717 -301.875 606.25 C-306.71879601 611.13301191 -311.61974539 615.80958452 -316.875 620.25 C-318.01960627 621.24451102 -319.16267909 622.24078815 -320.3046875 623.23828125 C-326.89261079 628.98818566 -333.53456949 634.63839598 -340.33203125 640.140625 C-343.77215892 642.99418712 -347.05743575 646.00442254 -350.359375 649.015625 C-352.88830295 651.26181566 -355.48549914 653.38531218 -358.125 655.5 C-363.19762842 659.59822522 -367.93407994 663.98109151 -372.67822266 668.44775391 C-377.01758852 672.51137809 -381.52223205 676.29162566 -386.1640625 680.0078125 C-389.16404435 682.4890655 -392.02653651 685.09864307 -394.875 687.75 C-398.58359535 691.20164054 -402.36006077 694.51522294 -406.3125 697.6875 C-410.44388821 701.00799969 -414.33283146 704.49459468 -418.1875 708.125 C-424.763488 714.2776703 -431.69330806 719.82434415 -438.875 725.25 C-439.58930176 725.79414551 -440.30360352 726.33829102 -441.03955078 726.89892578 C-452.59849515 735.6815421 -464.46876731 743.71649258 -476.875 751.25 C-477.56207031 751.67200684 -478.24914062 752.09401367 -478.95703125 752.52880859 C-496.25549269 763.13041421 -514.29105498 772.37612023 -532.875 780.5 C-553.53373662 789.53297579 -570.48142849 799.65155179 -586.875 815.25 C-587.58269531 815.89324219 -588.29039062 816.53648437 -589.01953125 817.19921875 C-603.89341254 831.16430892 -614.08870844 850.23260156 -620.875 869.25 C-621.10703125 869.87841797 -621.3390625 870.50683594 -621.578125 871.15429688 C-632.13189431 900.03058236 -628.50023057 929.78140085 -619.69287109 958.5078125 C-618.6253148 962.08715348 -617.71480329 965.68805811 -616.8125 969.3125 C-614.52426992 978.08076095 -611.17654401 986.45835174 -607.25390625 994.625 C-605.8817424 998.23227493 -605.42802411 1001.15625444 -605.10400391 1004.95605469 C-604.49513717 1011.05510788 -602.80708215 1017.04753261 -601.39697266 1023.00146484 C-600.92792844 1025.02199677 -600.49851245 1027.05163065 -600.07421875 1029.08203125 C-596.67248913 1043.96258308 -589.15269603 1057.97506218 -578.875 1069.25 C-577.88306641 1070.38308594 -577.88306641 1070.38308594 -576.87109375 1071.5390625 C-571.66995807 1077.42027301 -566.27336658 1083.12602655 -560.89697266 1088.84667969 C-557.88348225 1092.06096018 -554.94463439 1095.29992978 -552.125 1098.6875 C-539.3740738 1113.37809328 -522.96451634 1119.60657227 -504.375 1122.75 C-503.13121582 1122.96793213 -501.88743164 1123.18586426 -500.60595703 1123.41040039 C-495.37625461 1124.32418699 -490.14558433 1125.21932304 -484.8984375 1126.02734375 C-459.59467482 1129.98268185 -439.23285606 1142.06901987 -417.6015625 1155.19140625 C-410.56867959 1159.45153105 -403.47618269 1163.60527269 -396.375 1167.75 C-386.32385986 1173.62114797 -376.32033759 1179.56485953 -366.35009766 1185.57275391 C-357.02189543 1191.18395993 -347.63468784 1196.6918672 -338.23242188 1202.17773438 C-331.65314889 1206.02032971 -325.09999688 1209.90126689 -318.5708313 1213.82820129 C-311.60525583 1218.017242 -304.61564585 1222.16547761 -297.625 1226.3125 C-296.22199235 1227.14516062 -294.81899782 1227.97784336 -293.41601562 1228.81054688 C-283.64689522 1234.60813637 -273.87433922 1240.3999217 -264.10058594 1246.18969727 C-254.6711814 1251.77618252 -245.24712602 1257.37164856 -235.82373047 1262.96826172 C-226.67704615 1268.40040137 -217.52772006 1273.82803416 -208.375 1279.25 C-204.46996104 1281.5638176 -200.56503087 1283.87781867 -196.66021729 1286.1920166 C-195.44144829 1286.91430255 -194.2226566 1287.63655022 -193.00384521 1288.35876465 C-189.03209874 1290.7123082 -185.06085209 1293.06669197 -181.09024048 1295.42214966 C-179.74460664 1296.22037613 -178.39888398 1297.01845289 -177.05307007 1297.81637573 C-169.46975417 1302.31328264 -161.8991936 1306.83013712 -154.3515625 1311.38671875 C-153.66111343 1311.8030658 -152.97066437 1312.21941284 -152.2592926 1312.64837646 C-148.95482464 1314.64108391 -145.65252159 1316.63719271 -142.35424805 1318.64013672 C-141.16985499 1319.35530204 -139.98537105 1320.07031686 -138.80078125 1320.78515625 C-137.77380127 1321.407854 -136.74682129 1322.03055176 -135.6887207 1322.67211914 C-131.0965788 1325.24730466 -127.89847859 1326.58594207 -122.625 1326 C-121.66335938 1325.89558594 -120.70171875 1325.79117187 -119.7109375 1325.68359375 C-117.15235178 1325.29240502 -114.74652867 1324.73262085 -112.25 1324.0625 C-108.2559362 1323.11653752 -105.56956145 1323.52862551 -101.65625 1324.6171875 C-98.64443714 1325.30245953 -95.70725876 1325.61286886 -92.63696289 1325.90600586 C-81.67067384 1326.96771782 -74.61401931 1329.79266296 -65.66552734 1336.30761719 C-62.92549791 1338.21485028 -60.14348758 1339.90675291 -57.25 1341.5703125 C-55.66964966 1342.4830896 -55.66964966 1342.4830896 -54.05737305 1343.41430664 C-53.00718994 1344.02008545 -51.95700684 1344.62586426 -50.875 1345.25 C-49.02631112 1346.33287444 -47.17861974 1347.41745396 -45.33203125 1348.50390625 C-26.73374303 1359.41662665 -8.05254317 1370.1329763 11.125 1380 C21.00691039 1385.08663634 30.66668117 1390.41328615 40.125 1396.25 C40.75470703 1396.63639648 41.38441406 1397.02279297 42.03320312 1397.42089844 C48.87006995 1401.63826251 55.39247413 1406.06111195 61.59375 1411.1875 C66.31455742 1415.03408382 71.23602537 1418.62107038 76.125 1422.25 C73.83610813 1423.39444593 72.64067544 1423.3526882 70.1015625 1423.3125 C69.26093262 1423.30412109 68.42030273 1423.29574219 67.55419922 1423.28710938 C66.16612061 1423.26874023 66.16612061 1423.26874023 64.75 1423.25 C56.15009938 1423.18767161 47.59174485 1423.3856028 39 1423.75 C22.04054758 1424.42833083 5.09415778 1424.43557458 -11.875 1424.25 C-13.1129834 1424.23743164 -14.3509668 1424.22486328 -15.62646484 1424.21191406 C-102.81904402 1423.02331026 -190.89019806 1402.9404427 -451.80078125 1258.85546875 C-454.57199155 1256.49135813 -457.40427189 1254.21156042 -460.25 1251.9375 C-474.68885376 1240.11829616 -487.68389806 1226.601573 -500.84814453 1213.40722656 C-503.38711754 1210.862503 -505.93063144 1208.32237254 -508.47544861 1205.78349495 C-510.46772257 1203.79485691 -512.45758158 1201.80381608 -514.44674683 1199.81206894 C-515.83172746 1198.42611543 -517.21868876 1197.04214208 -518.60571289 1195.65823364 C-523.56492853 1190.68067008 -528.32644267 1185.60527099 -532.875 1180.25 C-533.3312677 1179.72132324 -533.7875354 1179.19264648 -534.25762939 1178.64794922 C-540.85322613 1171.00211764 -547.17395587 1163.16932052 -553.36230469 1155.19238281 C-554.98539835 1153.10824253 -556.62083896 1151.03419084 -558.2578125 1148.9609375 C-566.14098042 1138.95013256 -573.68415103 1128.76895165 -580.875 1118.25 C-581.47006348 1117.38197754 -582.06512695 1116.51395508 -582.67822266 1115.61962891 C-598.25971145 1092.80487652 -612.58524658 1069.35479821 -625.46533203 1044.90917969 C-626.74649186 1042.49241611 -628.05213449 1040.09158962 -629.37109375 1037.6953125 C-666.27247418 970.13705256 -688.77523886 893.61814898 -703.125 795.8125 C-703.35159302 793.95359131 -703.35159302 793.95359131 -703.58276367 792.05712891 C-704.06822383 787.79176039 -704.49135843 783.52560043 -704.875 779.25 C-704.9625354 778.2762442 -705.0500708 777.3024884 -705.14025879 776.29922485 C-706.83228957 756.73803723 -707.19144594 737.28783777 -707.13574219 717.66674805 C-707.12435826 713.62586115 -707.13113645 709.58523807 -707.14261341 705.54436016 C-707.2070718 678.83282273 -706.14440643 652.33015058 -702.6875 625.8125 C-702.58240112 624.99058167 -702.47730225 624.16866333 -702.36901855 623.32183838 C-692.32514293 545.28081361 -670.22871717 468.86286453 -631.86590576 392.21685791 C-630.91670326 390.33277718 -629.974726 388.4452946 -629.03564453 386.55615234 C-620.7422416 369.91151243 -611.54535117 353.98990341 -601.72119141 338.21972656 C-600.17726895 335.73622052 -598.65053633 333.24408655 -597.13671875 330.7421875 C-587.34339127 314.64353948 -576.38191188 299.16556313 -564.875 284.25 C-564.05933443 283.17881267 -563.24425791 282.10717662 -562.4296875 281.03515625 C-557.75996205 274.90563752 -552.99419467 268.87126197 -548.0859375 262.9296875 C-546.60172816 261.1308048 -545.12786411 259.3233403 -543.6640625 257.5078125 C-539.02026227 251.75601783 -534.19978877 246.22580248 -529.1953125 240.78515625 C-527.30218797 238.71674242 -525.45248296 236.62594124 -523.625 234.5 C-514.17231753 223.68144827 -504.1429035 213.41741012 -494 203.25 C-493.50822266 202.75563446 -493.01644531 202.26126892 -492.50976562 201.75192261 C-487.37085757 196.59168105 -482.19118589 191.52862826 -476.65820312 186.78808594 C-473.88534814 184.39638462 -471.23300166 181.87954304 -468.5625 179.375 C-463.823477 174.97096276 -458.98103378 170.76598212 -453.93359375 166.71484375 C-451.59503314 164.83025659 -449.27854639 162.92779484 -446.97265625 161.00390625 C-438.14252998 153.64495686 -429.18102528 146.53843149 -419.90966797 139.74316406 C-417.86206351 138.24050641 -415.82365615 136.72591466 -413.78515625 135.2109375 C-387.06637328 115.49433962 -358.57863062 98.1541014 -329.29150391 82.54638672 C-327.14523276 81.39497231 -325.0136759 80.22172889 -322.88671875 79.03515625 C-298.67288832 65.65750368 -272.70365493 55.06284169 -246.875 45.25 C-245.07240723 44.56260742 -245.07240723 44.56260742 -243.23339844 43.86132812 C-165.99956893 14.70478205 -82.47856789 -0.04790277 0 0 Z " fill="#96B5E8" transform="translate(928.875,165.75)"/>
<path d="M0 0 C2.88755315 2.88755315 2.28850571 5.23552578 2.32861328 9.18823242 C2.3232959 10.15736572 2.31797852 11.12649902 2.3125 12.125 C2.30976074 13.11024658 2.30702148 14.09549316 2.30419922 15.1105957 C2.01684542 35.47473187 2.01684542 35.47473187 -3 43 C-2.56157934 39.34649452 -2.12571161 35.71492482 -1.48828125 32.08984375 C0.31109157 21.3829374 0.20150231 10.8284243 0 0 Z " fill="#929292" transform="translate(1202,1545)"/>
<path d="M0 0 C0.33 0.66 0.66 1.32 1 2 C0.34 1.67 -0.32 1.34 -1 1 C-0.67 0.67 -0.34 0.34 0 0 Z " fill="#818181" transform="translate(1198,1588)"/>
</svg>
